<svg width="60" height="52" viewBox="0 0 60 52" fill="none" xmlns="http://www.w3.org/2000/svg">
<path d="M30.7701 24.8177C30.7701 24.8177 30.8203 24.7675 30.9208 24.6671C31.0212 24.5666 31.0714 24.3601 31.0714 24.0476C31.0714 23.7351 30.971 23.4784 30.7701 23.2776C30.5692 23.0767 30.3125 22.9762 30 22.9762C28.5268 22.9762 27.2656 23.5008 26.2165 24.5499C25.1674 25.599 24.6429 26.8601 24.6429 28.3334C24.6429 28.6459 24.7433 28.9026 24.9442 29.1034C25.1451 29.3043 25.4018 29.4048 25.7143 29.4048C26.0268 29.4048 26.2835 29.3043 26.4844 29.1034C26.6853 28.9026 26.7857 28.6459 26.7857 28.3334C26.7857 27.4405 27.0982 26.6816 27.7232 26.0566C28.3482 25.4316 29.1071 25.1191 30 25.1191C30.3125 25.1191 30.5692 25.0186 30.7701 24.8177ZM36.0603 22.3401C36.0603 22.3401 36.4788 22.7586 37.3158 23.5956C38.1529 24.4327 38.5714 26.0343 38.5714 28.4003C38.5714 30.7664 37.7344 32.7865 36.0603 34.4606C34.3862 36.1347 32.3661 36.9718 30 36.9718C27.6339 36.9718 25.6138 36.1347 23.9397 34.4606C22.2656 32.7865 21.4286 30.7664 21.4286 28.4003C21.4286 26.0343 22.2656 24.0142 23.9397 22.3401C25.6138 20.6659 27.6339 19.8289 30 19.8289C32.3661 19.8289 34.3862 20.6659 36.0603 22.3401ZM4.28571 47.6191H55.7143V43.3334H4.28571V47.6191ZM39.0904 37.4907C39.0904 37.4907 39.7182 36.8629 40.9738 35.6074C42.2294 34.3518 42.8571 31.9494 42.8571 28.4003C42.8571 24.8512 41.6016 21.8211 39.0904 19.3099C36.5792 16.7988 33.5491 15.5432 30 15.5432C26.4509 15.5432 23.4208 16.7988 20.9096 19.3099C18.3984 21.8211 17.1429 24.8512 17.1429 28.4003C17.1429 31.9494 18.3984 34.9796 20.9096 37.4907C23.4208 40.0019 26.4509 41.2575 30 41.2575C33.5491 41.2575 36.5792 40.0019 39.0904 37.4907ZM8.57143 6.90479H21.4286V2.61907H8.57143V6.90479ZM4.28571 13.3334H55.7143V9.38247V4.76193H27.9911L25.8482 9.04765H4.28571V13.3334ZM60 4.76193V47.6191C60 48.8021 59.5815 49.8122 58.7444 50.6492C57.9074 51.4863 56.8973 51.9048 55.7143 51.9048H4.28571C3.10268 51.9048 2.09263 51.4863 1.25558 50.6492C0.418527 49.8122 0 48.8021 0 47.6191V4.76193C0 3.5789 0.418527 2.56885 1.25558 1.7318C2.09263 0.894741 3.10268 0.476215 4.28571 0.476215H55.7143C56.8973 0.476215 57.9074 0.894741 58.7444 1.7318C59.5815 2.56885 60 3.5789 60 4.76193Z" fill="white"/>
</svg>
