<svg width="60" height="52" viewBox="0 0 60 52" fill="none" xmlns="http://www.w3.org/2000/svg">
<path d="M55.7143 16.1459C55.7143 14.3378 55.4743 12.7418 54.9944 11.3579C54.5145 9.97398 53.9007 8.87465 53.1529 8.05992C52.4051 7.24519 51.4955 6.58113 50.4241 6.06773C49.3527 5.55434 48.3036 5.20836 47.2768 5.02979C46.25 4.85122 45.1562 4.76193 43.9955 4.76193C42.8348 4.76193 41.5848 5.04653 40.2455 5.61572C38.9062 6.18492 37.673 6.89921 36.5458 7.75858C35.4185 8.61795 34.4531 9.42153 33.6496 10.1693C32.846 10.9171 32.1763 11.6034 31.6406 12.2284C31.2388 12.7195 30.692 12.9651 30 12.9651C29.308 12.9651 28.7612 12.7195 28.3594 12.2284C27.8237 11.6034 27.154 10.9171 26.3504 10.1693C25.5469 9.42153 24.5815 8.61795 23.4542 7.75858C22.327 6.89921 21.0938 6.18492 19.7545 5.61572C18.4152 5.04653 17.1652 4.76193 16.0045 4.76193C14.8437 4.76193 13.75 4.85122 12.7232 5.02979C11.6964 5.20836 10.6473 5.55434 9.57589 6.06773C8.50446 6.58113 7.59487 7.24519 6.8471 8.05992C6.09933 8.87465 5.48549 9.97398 5.00558 11.3579C4.52567 12.7418 4.28571 14.3378 4.28571 16.1459C4.28571 19.8959 6.37277 23.8579 10.5469 28.032L30 46.782L49.4196 28.0655C53.6161 23.8691 55.7143 19.8959 55.7143 16.1459ZM60 16.1459C60 21.0789 57.4442 26.1012 52.3326 31.2128L31.4732 51.3021C31.0714 51.7039 30.5804 51.9048 30 51.9048C29.4196 51.9048 28.9286 51.7039 28.5268 51.3021L7.63393 31.1459C7.41071 30.9673 7.10379 30.6771 6.71317 30.2753C6.32254 29.8735 5.70312 29.1425 4.85491 28.0822C4.0067 27.022 3.24777 25.9338 2.57812 24.8177C1.90848 23.7017 1.31138 22.3512 0.78683 20.7664C0.262277 19.1816 0 17.6414 0 16.1459C0 11.2351 1.41741 7.39586 4.25223 4.628C7.08705 1.86015 11.0045 0.476215 16.0045 0.476215C17.3884 0.476215 18.8002 0.716171 20.24 1.19608C21.6797 1.67599 23.019 2.32331 24.2578 3.13805C25.4967 3.95278 26.5625 4.71729 27.4554 5.43157C28.3482 6.14586 29.1964 6.90479 30 7.70836C30.8036 6.90479 31.6518 6.14586 32.5446 5.43157C33.4375 4.71729 34.5033 3.95278 35.7422 3.13805C36.981 2.32331 38.3203 1.67599 39.76 1.19608C41.1998 0.716171 42.6116 0.476215 43.9955 0.476215C48.9955 0.476215 52.9129 1.86015 55.7478 4.628C58.5826 7.39586 60 11.2351 60 16.1459Z" fill="white"/>
</svg>
